#define blursk_width 196
#define blursk_height 82
static unsigned char blursk_bits[] = {
   0x00, 0x00, 0x00, 0x00, 0x00, 0x00, 0x00, 0x00, 0x00, 0x00, 0x00, 0x00,
   0x00, 0x00, 0x00, 0x00, 0x00, 0x00, 0x00, 0x00, 0x00, 0x00, 0xf8, 0x03,
   0xf0, 0x00, 0x00, 0x00, 0x00, 0x00, 0x00, 0x00, 0x00, 0x00, 0x00, 0x00,
   0x00, 0x00, 0x00, 0x00, 0x00, 0x00, 0x00, 0x00, 0x00, 0x00, 0x00, 0xfc,
   0x03, 0xf0, 0x00, 0x00, 0x00, 0x00, 0x00, 0x00, 0x00, 0x00, 0x00, 0x00,
   0x00, 0x00, 0x00, 0x00, 0x00, 0x00, 0x00, 0x00, 0x00, 0x00, 0x00, 0x00,
   0xfc, 0x01, 0xf0, 0x00, 0x00, 0x00, 0x00, 0x00, 0x00, 0x00, 0x00, 0x00,
   0x00, 0x00, 0x00, 0x00, 0x00, 0x00, 0x00, 0x00, 0x00, 0x00, 0x00, 0x00,
   0x00, 0xfe, 0x01, 0xf0, 0x00, 0x00, 0x00, 0x00, 0x00, 0x00, 0x00, 0x00,
   0x00, 0x00, 0x00, 0x00, 0x00, 0x00, 0x00, 0x00, 0x00, 0x00, 0x00, 0x00,
   0x00, 0x00, 0xfe, 0x00, 0xf0, 0x00, 0x00, 0x00, 0x00, 0x00, 0x00, 0x00,
   0x00, 0x00, 0x00, 0x00, 0x00, 0x00, 0x00, 0x00, 0x00, 0x00, 0x00, 0x00,
   0x00, 0x18, 0x00, 0x7f, 0x00, 0xf0, 0x00, 0x00, 0x00, 0x00, 0x00, 0x00,
   0x00, 0x00, 0x00, 0x00, 0x00, 0x00, 0x00, 0x00, 0x00, 0x00, 0x00, 0x00,
   0x00, 0x00, 0x1e, 0x00, 0x7f, 0x00, 0xf0, 0x00, 0x00, 0x00, 0x00, 0x00,
   0x00, 0x00, 0x00, 0x00, 0x00, 0x00, 0x00, 0x00, 0x00, 0x00, 0x00, 0x00,
   0x00, 0x00, 0xc0, 0x1f, 0x80, 0x3f, 0x00, 0xf0, 0x00, 0x00, 0x00, 0x00,
   0x00, 0x00, 0x00, 0x00, 0x00, 0x00, 0x00, 0x00, 0x00, 0x00, 0x00, 0x00,
   0x00, 0x00, 0x00, 0xe0, 0x1f, 0xc0, 0x3f, 0x00, 0xf0, 0x00, 0x00, 0x00,
   0x00, 0x00, 0x00, 0x00, 0x00, 0x00, 0x00, 0x00, 0x00, 0x00, 0x00, 0x00,
   0x00, 0x00, 0x00, 0x00, 0xc0, 0x3f, 0xc0, 0x1f, 0x00, 0xf0, 0x00, 0x00,
   0x00, 0x00, 0x00, 0x00, 0x00, 0x00, 0x00, 0x00, 0x00, 0x00, 0x00, 0x00,
   0x00, 0x00, 0x00, 0x00, 0x00, 0xc0, 0x3f, 0xe0, 0x0f, 0x00, 0xf0, 0x00,
   0x00, 0x00, 0x00, 0x00, 0x00, 0x00, 0x00, 0x00, 0x00, 0x00, 0x00, 0x00,
   0x00, 0x00, 0x00, 0x00, 0xf8, 0x1f, 0xc0, 0x3f, 0xf0, 0x0f, 0x00, 0xf0,
   0x00, 0x00, 0x00, 0x00, 0x00, 0x00, 0x00, 0x00, 0x00, 0x00, 0x00, 0x00,
   0x00, 0x00, 0x00, 0x00, 0x00, 0xff, 0xff, 0x81, 0x7f, 0xf0, 0x07, 0x00,
   0xf0, 0x00, 0x00, 0x00, 0x00, 0x00, 0x00, 0x00, 0x00, 0x00, 0x00, 0x00,
   0x00, 0x00, 0x00, 0x00, 0x00, 0x80, 0xff, 0xff, 0x83, 0x7f, 0xf8, 0x03,
   0x00, 0xf0, 0x00, 0x00, 0x00, 0x00, 0x00, 0x00, 0x00, 0x00, 0x00, 0x00,
   0x00, 0x00, 0x00, 0x00, 0x00, 0x00, 0xe0, 0xff, 0xff, 0x87, 0x7f, 0xf8,
   0x01, 0x00, 0xf0, 0x00, 0x00, 0x00, 0x00, 0x00, 0x00, 0x00, 0x00, 0x00,
   0x00, 0x00, 0x00, 0x00, 0x00, 0x00, 0x00, 0xf0, 0xff, 0xff, 0x07, 0xff,
   0xfc, 0x01, 0x00, 0xf0, 0x00, 0x00, 0x00, 0x00, 0x00, 0x00, 0x00, 0x00,
   0x00, 0x00, 0x00, 0x00, 0x00, 0x00, 0x00, 0x00, 0xf8, 0x07, 0xfc, 0x0f,
   0xff, 0xfc, 0x00, 0x00, 0xf0, 0x00, 0x00, 0x00, 0x00, 0x00, 0x00, 0x00,
   0x00, 0x00, 0x00, 0x00, 0x00, 0x00, 0x00, 0x00, 0x00, 0xfc, 0x03, 0xf8,
   0x0f, 0xff, 0xfe, 0x00, 0x00, 0xf0, 0x00, 0x00, 0x00, 0x00, 0x00, 0x00,
   0x00, 0x00, 0x00, 0x00, 0x00, 0x00, 0x00, 0x00, 0x00, 0x00, 0xfe, 0x01,
   0xf0, 0x03, 0xff, 0xff, 0x01, 0x00, 0xf0, 0x00, 0x00, 0x00, 0x00, 0x00,
   0x00, 0x00, 0x00, 0x00, 0x00, 0x00, 0x00, 0x00, 0x00, 0x00, 0x00, 0xff,
   0x01, 0xc0, 0x00, 0xfe, 0xff, 0x03, 0x00, 0xf0, 0x00, 0x00, 0x00, 0x00,
   0x00, 0x00, 0x00, 0x00, 0x00, 0x00, 0x00, 0x00, 0x00, 0xf8, 0x07, 0x00,
   0xff, 0x01, 0x00, 0x00, 0xfe, 0xff, 0x07, 0x00, 0xf0, 0x00, 0x00, 0x00,
   0x00, 0x00, 0x00, 0x00, 0x00, 0x00, 0x00, 0x00, 0x00, 0x00, 0xff, 0x3f,
   0x00, 0xff, 0x01, 0x00, 0x00, 0xfe, 0xff, 0x0f, 0x00, 0xf0, 0x00, 0x00,
   0x00, 0x00, 0x00, 0x00, 0x00, 0x00, 0x00, 0x00, 0x00, 0x00, 0xe0, 0xff,
   0xff, 0x00, 0xff, 0x01, 0x00, 0x00, 0xfe, 0xff, 0x3f, 0x00, 0xf0, 0x00,
   0x00, 0x00, 0x00, 0x00, 0x00, 0x00, 0x00, 0x00, 0x00, 0x00, 0x00, 0xfc,
   0xff, 0xff, 0x01, 0xff, 0x07, 0x00, 0x00, 0xfc, 0xff, 0xff, 0x00, 0xf0,
   0x00, 0x00, 0x00, 0x00, 0x00, 0x00, 0x00, 0x00, 0x00, 0x00, 0x00, 0x80,
   0xff, 0xff, 0xff, 0x03, 0xff, 0xff, 0x3f, 0x00, 0xfc, 0xf7, 0xff, 0x03,
   0xf0, 0x00, 0x00, 0x00, 0x00, 0x00, 0x00, 0x00, 0x00, 0x00, 0x00, 0x00,
   0xc0, 0xff, 0x07, 0xff, 0x03, 0xff, 0xff, 0xff, 0x07, 0xfc, 0xc7, 0xff,
   0x0f, 0xf0, 0x00, 0x00, 0x00, 0x00, 0x00, 0x00, 0x00, 0x00, 0x00, 0x00,
   0x00, 0xc0, 0xff, 0x00, 0xfc, 0x07, 0xfe, 0xff, 0xff, 0x0f, 0xf8, 0x83,
   0xff, 0x3f, 0xf0, 0x00, 0x00, 0x00, 0x00, 0x00, 0x00, 0x00, 0x00, 0x00,
   0x00, 0xe0, 0xc3, 0x7f, 0x00, 0xfc, 0x07, 0xfe, 0xff, 0xff, 0x1f, 0xf8,
   0x03, 0xfc, 0x7f, 0xf0, 0x00, 0x00, 0x00, 0x00, 0x00, 0x00, 0x00, 0x00,
   0x00, 0x00, 0xfc, 0x83, 0x3f, 0x00, 0xfc, 0x07, 0xf8, 0xff, 0xff, 0x3f,
   0xf8, 0x07, 0xf0, 0xff, 0xf0, 0x00, 0x00, 0x00, 0x00, 0x00, 0x00, 0x00,
   0x00, 0x00, 0x00, 0xfc, 0x83, 0x3f, 0x00, 0xf8, 0x07, 0x00, 0xff, 0xff,
   0x7f, 0xf8, 0x07, 0xc0, 0xff, 0xf3, 0x00, 0x00, 0x00, 0x00, 0x00, 0x00,
   0x00, 0x00, 0x00, 0x00, 0xfc, 0x83, 0x7f, 0x00, 0xf8, 0x07, 0x00, 0xe0,
   0xff, 0x7f, 0xf0, 0x0f, 0xc0, 0xff, 0xf3, 0x00, 0x00, 0x00, 0x00, 0x00,
   0x00, 0x00, 0x00, 0x00, 0x00, 0xfc, 0x07, 0x7f, 0x00, 0xf8, 0x07, 0x00,
   0x00, 0xfc, 0xff, 0xf0, 0x0f, 0x00, 0xff, 0xf3, 0x00, 0x00, 0x00, 0x00,
   0x00, 0x00, 0x00, 0x00, 0x00, 0x00, 0xf8, 0x07, 0x7f, 0x00, 0xfc, 0x03,
   0x00, 0x00, 0x80, 0xff, 0xf0, 0x0f, 0x00, 0xfe, 0xf0, 0x00, 0x00, 0x00,
   0x00, 0x00, 0x00, 0x00, 0x00, 0x1f, 0x00, 0xf8, 0x0f, 0xff, 0x00, 0xfc,
   0x03, 0x00, 0x00, 0x00, 0xff, 0xf0, 0x1f, 0x00, 0x38, 0xf0, 0x00, 0x00,
   0x00, 0x00, 0x00, 0x00, 0x00, 0xe0, 0x1f, 0x00, 0xf8, 0x0f, 0xff, 0x00,
   0xfe, 0x01, 0x00, 0x00, 0x00, 0xff, 0xe0, 0x1f, 0x00, 0x00, 0xf0, 0x00,
   0x00, 0x00, 0x00, 0x00, 0x00, 0x00, 0xe0, 0x3f, 0x00, 0xf8, 0x0f, 0xfe,
   0xc0, 0xff, 0x00, 0x00, 0x00, 0x00, 0xff, 0xe0, 0x3f, 0x00, 0x00, 0xf0,
   0x00, 0x00, 0x00, 0x00, 0x00, 0x00, 0x00, 0xe0, 0x3f, 0x00, 0xf0, 0x0f,
   0xfe, 0xf9, 0x7f, 0x00, 0x00, 0x1f, 0x00, 0xff, 0xe0, 0x3f, 0x00, 0x00,
   0xf0, 0x00, 0x00, 0x00, 0x00, 0x00, 0x00, 0x00, 0xc0, 0x3f, 0x00, 0xf0,
   0x1f, 0xfe, 0xff, 0xff, 0x00, 0xc0, 0x1f, 0x80, 0xff, 0xc0, 0x3f, 0x00,
   0x00, 0xf0, 0x00, 0x00, 0x00, 0x00, 0x00, 0x00, 0x00, 0xc0, 0x3f, 0x00,
   0xf0, 0x1f, 0xfc, 0xff, 0xff, 0x0f, 0xf0, 0x1f, 0x80, 0xff, 0xc0, 0x0f,
   0x00, 0x00, 0xf0, 0x00, 0x00, 0x00, 0x00, 0x00, 0x00, 0x00, 0xc0, 0x7f,
   0x00, 0xe0, 0x1f, 0xfc, 0xff, 0xff, 0x0f, 0xf0, 0x3f, 0x80, 0x7f, 0xc0,
   0x01, 0x00, 0x00, 0xf0, 0x00, 0x00, 0x00, 0x00, 0xc0, 0x03, 0x00, 0xc0,
   0x7f, 0x00, 0xe0, 0x1f, 0xfc, 0xff, 0xe1, 0x3f, 0xe0, 0xff, 0xe0, 0x3f,
   0x00, 0x00, 0x00, 0x00, 0xf0, 0x00, 0x00, 0x00, 0x00, 0xf8, 0x03, 0x00,
   0xc0, 0x7f, 0x00, 0xe0, 0x3f, 0xfc, 0x3f, 0xe0, 0x3f, 0xe0, 0xff, 0xff,
   0x1f, 0x00, 0x00, 0x00, 0x00, 0xf0, 0x00, 0x00, 0x00, 0x00, 0xfc, 0x07,
   0x00, 0x80, 0x7f, 0x00, 0xc0, 0x3f, 0xf8, 0x07, 0xc0, 0x7f, 0xc0, 0xff,
   0xff, 0x0f, 0x00, 0x00, 0x00, 0x00, 0xf0, 0x00, 0x00, 0x00, 0x00, 0xfc,
   0x07, 0x00, 0x80, 0x7f, 0x00, 0xc0, 0x3f, 0xf8, 0x03, 0x80, 0x7f, 0x80,
   0xff, 0xff, 0x07, 0x00, 0x00, 0x00, 0x00, 0xf0, 0x00, 0x00, 0x00, 0x00,
   0xfc, 0x07, 0x00, 0x80, 0xff, 0x00, 0xc0, 0x7f, 0xf8, 0x03, 0x80, 0xff,
   0x80, 0xff, 0xff, 0x01, 0x00, 0x00, 0x00, 0x00, 0xf0, 0x00, 0x00, 0x7e,
   0x00, 0xfc, 0x07, 0x00, 0x80, 0xff, 0x00, 0xc0, 0x7f, 0xf8, 0x07, 0x00,
   0xff, 0x00, 0xfe, 0x1f, 0x00, 0x00, 0x00, 0x00, 0x00, 0xf0, 0x00, 0x80,
   0xff, 0x03, 0xf8, 0x0f, 0x00, 0x00, 0xff, 0x00, 0x80, 0x7f, 0xf0, 0x07,
   0x00, 0xff, 0x01, 0xe0, 0x00, 0x00, 0x00, 0x00, 0x00, 0x00, 0xf0, 0x00,
   0xf8, 0xff, 0x0f, 0xf8, 0x0f, 0x00, 0x00, 0xff, 0x01, 0x80, 0x7f, 0xf0,
   0x0f, 0x00, 0xfe, 0x03, 0x00, 0x00, 0x00, 0x00, 0x00, 0x00, 0x00, 0xf0,
   0x00, 0xff, 0xff, 0x1f, 0xf8, 0x0f, 0x00, 0x00, 0xff, 0x01, 0x80, 0xff,
   0xf0, 0x0f, 0x00, 0xfe, 0x07, 0x00, 0x00, 0x00, 0x00, 0x00, 0x00, 0x00,
   0xf0, 0xe0, 0xff, 0xff, 0x1f, 0xf0, 0x0f, 0x00, 0x00, 0xfe, 0x01, 0x00,
   0xff, 0xe0, 0x1f, 0x00, 0xfe, 0x07, 0x00, 0x00, 0x00, 0x00, 0x00, 0x00,
   0x00, 0xf0, 0xf8, 0xff, 0xf9, 0x3f, 0xf0, 0x1f, 0x00, 0x00, 0xfe, 0x01,
   0x00, 0xff, 0xe0, 0x1f, 0x00, 0xfc, 0x00, 0x00, 0x00, 0x00, 0x00, 0x00,
   0x00, 0x00, 0xf0, 0xfc, 0x3f, 0xe0, 0x3f, 0xf0, 0x1f, 0x00, 0x00, 0xfe,
   0x03, 0x00, 0xff, 0xe0, 0x1f, 0x00, 0x1c, 0x00, 0x00, 0x00, 0x00, 0x00,
   0x00, 0x00, 0x00, 0xf0, 0xf8, 0x0f, 0xc0, 0x7f, 0xe0, 0x1f, 0x00, 0x00,
   0xfc, 0x03, 0x00, 0xff, 0xe0, 0x3f, 0x00, 0x00, 0x00, 0x00, 0x00, 0x00,
   0x00, 0x00, 0x00, 0x00, 0xf0, 0xf8, 0x07, 0x80, 0x7f, 0xe0, 0x1f, 0x00,
   0x00, 0xfc, 0x03, 0x00, 0xff, 0xc0, 0x3f, 0x00, 0x00, 0x00, 0x00, 0x00,
   0x00, 0x00, 0x00, 0x00, 0x00, 0xf0, 0xf0, 0x0f, 0x80, 0x7f, 0xe0, 0x3f,
   0x00, 0x00, 0xfc, 0x07, 0x80, 0xff, 0xc0, 0x7f, 0x00, 0x00, 0x00, 0x00,
   0x00, 0x00, 0x00, 0x00, 0x00, 0x00, 0xf0, 0xf0, 0x0f, 0x80, 0x7f, 0xc0,
   0x3f, 0x00, 0x00, 0xf8, 0x07, 0x80, 0x7f, 0xc0, 0x3f, 0x00, 0x00, 0x00,
   0x00, 0x00, 0x00, 0x00, 0x00, 0x00, 0x00, 0xf0, 0xf0, 0x1f, 0x80, 0x3f,
   0xc0, 0x3f, 0x00, 0x00, 0xf8, 0x0f, 0x80, 0x7f, 0x80, 0x0f, 0x00, 0x00,
   0x00, 0x00, 0x00, 0x00, 0x00, 0x00, 0x00, 0x00, 0xf0, 0xe0, 0x1f, 0xc0,
   0x3f, 0xc0, 0x3f, 0x00, 0x00, 0xf8, 0x0f, 0xc0, 0x7f, 0x80, 0x03, 0x00,
   0x00, 0x00, 0x00, 0x00, 0x00, 0x00, 0x00, 0x00, 0x00, 0xf0, 0xe0, 0x1f,
   0xc0, 0x3f, 0x80, 0x7f, 0x00, 0x00, 0xf0, 0x3f, 0xf8, 0x3f, 0x00, 0x00,
   0x00, 0x00, 0x00, 0x00, 0x00, 0x00, 0x00, 0x00, 0x00, 0x00, 0xf0, 0xe0,
   0x3f, 0xe0, 0x3f, 0x80, 0x7f, 0x00, 0x00, 0xf0, 0xff, 0xff, 0x0f, 0x00,
   0x00, 0x00, 0x00, 0x00, 0x00, 0x00, 0x00, 0x00, 0x00, 0x00, 0x00, 0xf0,
   0xc0, 0x3f, 0xf8, 0x3f, 0x80, 0x7f, 0x00, 0x00, 0xe0, 0xff, 0xff, 0x07,
   0x00, 0x00, 0x00, 0x00, 0x00, 0x00, 0x00, 0x00, 0x00, 0x00, 0x00, 0x00,
   0xf0, 0xc0, 0x7f, 0xfe, 0xff, 0x01, 0xff, 0x00, 0x00, 0xc0, 0xff, 0xff,
   0x03, 0x00, 0x00, 0x00, 0x00, 0x00, 0x00, 0x00, 0x00, 0x00, 0x00, 0x00,
   0x00, 0xf0, 0xc0, 0xff, 0xff, 0xff, 0x07, 0xff, 0x00, 0x00, 0x80, 0xff,
   0x7f, 0x00, 0x00, 0x00, 0x00, 0x00, 0x00, 0x00, 0x00, 0x00, 0x00, 0x00,
   0x00, 0x00, 0xf0, 0x80, 0xff, 0xff, 0xff, 0x07, 0xff, 0x00, 0xc0, 0x01,
   0xff, 0x1f, 0x00, 0x00, 0x00, 0x00, 0x00, 0x00, 0x00, 0x00, 0x00, 0x00,
   0x00, 0x00, 0x00, 0xf0, 0x80, 0xff, 0xff, 0xff, 0x0f, 0xfe, 0x00, 0xfc,
   0x01, 0x00, 0x00, 0x00, 0x00, 0x00, 0x00, 0x00, 0x00, 0x00, 0x00, 0x00,
   0x00, 0x00, 0x00, 0x00, 0xf0, 0x80, 0xff, 0xff, 0xff, 0x0f, 0xfe, 0x81,
   0xff, 0x03, 0x00, 0x00, 0x00, 0x00, 0x00, 0x00, 0x00, 0x00, 0x00, 0x00,
   0x00, 0x00, 0x00, 0x00, 0x00, 0xf0, 0x00, 0xff, 0x07, 0xf8, 0x1f, 0xfe,
   0xf1, 0xff, 0x03, 0x00, 0x00, 0x00, 0x00, 0x00, 0x00, 0x00, 0x00, 0x00,
   0x00, 0x00, 0x00, 0x00, 0x00, 0x00, 0xf0, 0x00, 0xff, 0x01, 0xf0, 0x1f,
   0xfc, 0xff, 0xff, 0x03, 0x00, 0x00, 0x00, 0x00, 0x00, 0x00, 0x00, 0x00,
   0x00, 0x00, 0x00, 0x00, 0x00, 0x00, 0x00, 0xf0, 0x00, 0xff, 0x00, 0xe0,
   0x1f, 0xfc, 0xff, 0xff, 0x01, 0x00, 0x00, 0x00, 0x00, 0x00, 0x00, 0x00,
   0x00, 0x00, 0x00, 0x00, 0x00, 0x00, 0x00, 0x00, 0xf0, 0x00, 0xfe, 0x00,
   0xe0, 0x1f, 0xfc, 0xff, 0x7f, 0x00, 0x00, 0x00, 0x00, 0x00, 0x00, 0x00,
   0x00, 0x00, 0x00, 0x00, 0x00, 0x00, 0x00, 0x00, 0x00, 0xf0, 0x00, 0xfe,
   0x01, 0xe0, 0x1f, 0xf8, 0xff, 0x0f, 0x00, 0x00, 0x00, 0x00, 0x00, 0x00,
   0x00, 0x00, 0x00, 0x00, 0x00, 0x00, 0x00, 0x00, 0x00, 0x00, 0xf0, 0x00,
   0xfe, 0x01, 0xe0, 0x1f, 0xf8, 0xff, 0x00, 0x00, 0x00, 0x00, 0x00, 0x00,
   0x00, 0x00, 0x00, 0x00, 0x00, 0x00, 0x00, 0x00, 0x00, 0x00, 0x00, 0xf0,
   0x00, 0xfc, 0x01, 0xf0, 0x1f, 0xf8, 0x0f, 0x00, 0x00, 0x00, 0x00, 0x00,
   0x00, 0x00, 0x00, 0x00, 0x00, 0x00, 0x00, 0x00, 0x00, 0x00, 0x00, 0x00,
   0xf0, 0x00, 0xfc, 0x03, 0xf0, 0x0f, 0xf0, 0x01, 0x00, 0x00, 0x00, 0x00,
   0x00, 0x00, 0x00, 0x00, 0x00, 0x00, 0x00, 0x00, 0x00, 0x00, 0x00, 0x00,
   0x00, 0xf0, 0x00, 0xfc, 0x03, 0xfc, 0x0f, 0x30, 0x00, 0x00, 0x00, 0x00,
   0x00, 0x00, 0x00, 0x00, 0x00, 0x00, 0x00, 0x00, 0x00, 0x00, 0x00, 0x00,
   0x00, 0x00, 0xf0, 0x00, 0xf8, 0x83, 0xff, 0x03, 0x00, 0x00, 0x00, 0x00,
   0x00, 0x00, 0x00, 0x00, 0x00, 0x00, 0x00, 0x00, 0x00, 0x00, 0x00, 0x00,
   0x00, 0x00, 0x00, 0xf0, 0x00, 0xf8, 0xe7, 0xff, 0x00, 0x00, 0x00, 0x00,
   0x00, 0x00, 0x00, 0x00, 0x00, 0x00, 0x00, 0x00, 0x00, 0x00, 0x00, 0x00,
   0x00, 0x00, 0x00, 0x00, 0xf0, 0x00, 0xf0, 0xff, 0x7f, 0x00, 0x00, 0x00,
   0x00, 0x00, 0x00, 0x00, 0x00, 0x00, 0x00, 0x00, 0x00, 0x00, 0x00, 0x00,
   0x00, 0x00, 0x00, 0x00, 0x00, 0xf0, 0x00, 0xf0, 0xff, 0x3f, 0x00, 0x00,
   0x00, 0x00, 0x00, 0x00, 0x00, 0x00, 0x00, 0x00, 0x00, 0x00, 0x00, 0x00,
   0x00, 0x00, 0x00, 0x00, 0x00, 0x00, 0xf0, 0x00, 0xe0, 0xff, 0x07, 0x00,
   0x00, 0x00, 0x00, 0x00, 0x00, 0x00, 0x00, 0x00, 0x00, 0x00, 0x00, 0x00,
   0x00, 0x00, 0x00, 0x00, 0x00, 0x00, 0x00, 0xf0, 0x00, 0xe0, 0x7f, 0x00,
   0x00, 0x00, 0x00, 0x00, 0x00, 0x00, 0x00, 0x00, 0x00, 0x00, 0x00, 0x00,
   0x00, 0x00, 0x00, 0x00, 0x00, 0x00, 0x00, 0x00, 0xf0, 0x00, 0x80, 0x0f,
   0x00, 0x00, 0x00, 0x00, 0x00, 0x00, 0x00, 0x00, 0x00, 0x00, 0x00, 0x00,
   0x00, 0x00, 0x00, 0x00, 0x00, 0x00, 0x00, 0x00, 0x00, 0xf0};
