#define peace_width 128
#define peace_height 128
static unsigned char peace_bits[] = {
   0x00, 0x00, 0x00, 0x00, 0x00, 0x00, 0x00, 0x00, 0x00, 0x00, 0x00, 0x00,
   0x00, 0x00, 0x00, 0x00, 0x00, 0x00, 0x00, 0x00, 0x00, 0x00, 0x00, 0xfe,
   0xff, 0x00, 0x00, 0x00, 0x00, 0x00, 0x00, 0x00, 0x00, 0x00, 0x00, 0x00,
   0x00, 0x00, 0xf8, 0xff, 0xff, 0x3f, 0x00, 0x00, 0x00, 0x00, 0x00, 0x00,
   0x00, 0x00, 0x00, 0x00, 0x00, 0x80, 0xff, 0xff, 0xff, 0xff, 0x03, 0x00,
   0x00, 0x00, 0x00, 0x00, 0x00, 0x00, 0x00, 0x00, 0x00, 0xf0, 0xff, 0xff,
   0xff, 0xff, 0x1f, 0x00, 0x00, 0x00, 0x00, 0x00, 0x00, 0x00, 0x00, 0x00,
   0x00, 0xfe, 0xff, 0xff, 0xff, 0xff, 0xff, 0x00, 0x00, 0x00, 0x00, 0x00,
   0x00, 0x00, 0x00, 0x00, 0x80, 0xff, 0xff, 0xff, 0xff, 0xff, 0xff, 0x03,
   0x00, 0x00, 0x00, 0x00, 0x00, 0x00, 0x00, 0x00, 0xe0, 0xff, 0xff, 0xff,
   0xff, 0xff, 0xff, 0x0f, 0x00, 0x00, 0x00, 0x00, 0x00, 0x00, 0x00, 0x00,
   0xf8, 0xff, 0xff, 0xe7, 0xcf, 0xff, 0xff, 0x3f, 0x00, 0x00, 0x00, 0x00,
   0x00, 0x00, 0x00, 0x00, 0xfe, 0xff, 0x0f, 0xe0, 0x0f, 0xe0, 0xff, 0xff,
   0x00, 0x00, 0x00, 0x00, 0x00, 0x00, 0x00, 0x80, 0xff, 0xff, 0x00, 0xe0,
   0x0f, 0x00, 0xfe, 0xff, 0x03, 0x00, 0x00, 0x00, 0x00, 0x00, 0x00, 0xc0,
   0xff, 0x1f, 0x00, 0xe0, 0x0f, 0x00, 0xf0, 0xff, 0x07, 0x00, 0x00, 0x00,
   0x00, 0x00, 0x00, 0xf0, 0xff, 0x07, 0x00, 0xe0, 0x0f, 0x00, 0xc0, 0xff,
   0x1f, 0x00, 0x00, 0x00, 0x00, 0x00, 0x00, 0xf8, 0xff, 0x00, 0x00, 0xe0,
   0x0f, 0x00, 0x00, 0xfe, 0x3f, 0x00, 0x00, 0x00, 0x00, 0x00, 0x00, 0xfe,
   0x3f, 0x00, 0x00, 0xe0, 0x0f, 0x00, 0x00, 0xf8, 0xff, 0x00, 0x00, 0x00,
   0x00, 0x00, 0x00, 0xff, 0x0f, 0x00, 0x00, 0xe0, 0x0f, 0x00, 0x00, 0xe0,
   0xff, 0x01, 0x00, 0x00, 0x00, 0x00, 0x80, 0xff, 0x07, 0x00, 0x00, 0xe0,
   0x0f, 0x00, 0x00, 0xc0, 0xff, 0x03, 0x00, 0x00, 0x00, 0x00, 0xc0, 0xff,
   0x01, 0x00, 0x00, 0xe0, 0x0f, 0x00, 0x00, 0x00, 0xff, 0x07, 0x00, 0x00,
   0x00, 0x00, 0xe0, 0xff, 0x00, 0x00, 0x00, 0xe0, 0x0f, 0x00, 0x00, 0x00,
   0xfe, 0x0f, 0x00, 0x00, 0x00, 0x00, 0xf0, 0x3f, 0x00, 0x00, 0x00, 0xe0,
   0x0f, 0x00, 0x00, 0x00, 0xf8, 0x1f, 0x00, 0x00, 0x00, 0x00, 0xf8, 0x1f,
   0x00, 0x00, 0x00, 0xe0, 0x0f, 0x00, 0x00, 0x00, 0xf0, 0x3f, 0x00, 0x00,
   0x00, 0x00, 0xfc, 0x0f, 0x00, 0x00, 0x00, 0xe0, 0x0f, 0x00, 0x00, 0x00,
   0xe0, 0x7f, 0x00, 0x00, 0x00, 0x00, 0xfe, 0x07, 0x00, 0x00, 0x00, 0xe0,
   0x0f, 0x00, 0x00, 0x00, 0xc0, 0xff, 0x00, 0x00, 0x00, 0x00, 0xff, 0x03,
   0x00, 0x00, 0x00, 0xe0, 0x0f, 0x00, 0x00, 0x00, 0x80, 0xff, 0x01, 0x00,
   0x00, 0x80, 0xff, 0x00, 0x00, 0x00, 0x00, 0xe0, 0x0f, 0x00, 0x00, 0x00,
   0x00, 0xfe, 0x03, 0x00, 0x00, 0xc0, 0xff, 0x00, 0x00, 0x00, 0x00, 0xe0,
   0x0f, 0x00, 0x00, 0x00, 0x00, 0xfe, 0x07, 0x00, 0x00, 0xc0, 0x7f, 0x00,
   0x00, 0x00, 0x00, 0xe0, 0x0f, 0x00, 0x00, 0x00, 0x00, 0xfc, 0x07, 0x00,
   0x00, 0xe0, 0x3f, 0x00, 0x00, 0x00, 0x00, 0xe0, 0x0f, 0x00, 0x00, 0x00,
   0x00, 0xf8, 0x0f, 0x00, 0x00, 0xf0, 0x1f, 0x00, 0x00, 0x00, 0x00, 0xe0,
   0x0f, 0x00, 0x00, 0x00, 0x00, 0xf0, 0x1f, 0x00, 0x00, 0xf0, 0x0f, 0x00,
   0x00, 0x00, 0x00, 0xe0, 0x0f, 0x00, 0x00, 0x00, 0x00, 0xe0, 0x1f, 0x00,
   0x00, 0xf8, 0x07, 0x00, 0x00, 0x00, 0x00, 0xe0, 0x0f, 0x00, 0x00, 0x00,
   0x00, 0xc0, 0x3f, 0x00, 0x00, 0xfc, 0x07, 0x00, 0x00, 0x00, 0x00, 0xe0,
   0x0f, 0x00, 0x00, 0x00, 0x00, 0xc0, 0x7f, 0x00, 0x00, 0xfc, 0x03, 0x00,
   0x00, 0x00, 0x00, 0xe0, 0x0f, 0x00, 0x00, 0x00, 0x00, 0x80, 0x7f, 0x00,
   0x00, 0xfe, 0x01, 0x00, 0x00, 0x00, 0x00, 0xe0, 0x0f, 0x00, 0x00, 0x00,
   0x00, 0x00, 0xff, 0x00, 0x00, 0xfe, 0x01, 0x00, 0x00, 0x00, 0x00, 0xe0,
   0x0f, 0x00, 0x00, 0x00, 0x00, 0x00, 0xff, 0x00, 0x00, 0xff, 0x00, 0x00,
   0x00, 0x00, 0x00, 0xe0, 0x0f, 0x00, 0x00, 0x00, 0x00, 0x00, 0xfe, 0x01,
   0x00, 0x7f, 0x00, 0x00, 0x00, 0x00, 0x00, 0xe0, 0x0f, 0x00, 0x00, 0x00,
   0x00, 0x00, 0xfc, 0x01, 0x80, 0x7f, 0x00, 0x00, 0x00, 0x00, 0x00, 0xe0,
   0x0f, 0x00, 0x00, 0x00, 0x00, 0x00, 0xfc, 0x03, 0x80, 0x3f, 0x00, 0x00,
   0x00, 0x00, 0x00, 0xe0, 0x0f, 0x00, 0x00, 0x00, 0x00, 0x00, 0xf8, 0x03,
   0xc0, 0x3f, 0x00, 0x00, 0x00, 0x00, 0x00, 0xe0, 0x0f, 0x00, 0x00, 0x00,
   0x00, 0x00, 0xf8, 0x07, 0xc0, 0x1f, 0x00, 0x00, 0x00, 0x00, 0x00, 0xe0,
   0x0f, 0x00, 0x00, 0x00, 0x00, 0x00, 0xf0, 0x07, 0xe0, 0x1f, 0x00, 0x00,
   0x00, 0x00, 0x00, 0xe0, 0x0f, 0x00, 0x00, 0x00, 0x00, 0x00, 0xf0, 0x0f,
   0xe0, 0x1f, 0x00, 0x00, 0x00, 0x00, 0x00, 0xe0, 0x0f, 0x00, 0x00, 0x00,
   0x00, 0x00, 0xf0, 0x0f, 0xe0, 0x0f, 0x00, 0x00, 0x00, 0x00, 0x00, 0xe0,
   0x0f, 0x00, 0x00, 0x00, 0x00, 0x00, 0xe0, 0x0f, 0xf0, 0x0f, 0x00, 0x00,
   0x00, 0x00, 0x00, 0xe0, 0x0f, 0x00, 0x00, 0x00, 0x00, 0x00, 0xe0, 0x1f,
   0xf0, 0x07, 0x00, 0x00, 0x00, 0x00, 0x00, 0xe0, 0x0f, 0x00, 0x00, 0x00,
   0x00, 0x00, 0xc0, 0x1f, 0xf0, 0x07, 0x00, 0x00, 0x00, 0x00, 0x00, 0xe0,
   0x0f, 0x00, 0x00, 0x00, 0x00, 0x00, 0xc0, 0x1f, 0xf8, 0x07, 0x00, 0x00,
   0x00, 0x00, 0x00, 0xe0, 0x0f, 0x00, 0x00, 0x00, 0x00, 0x00, 0xc0, 0x3f,
   0xf8, 0x03, 0x00, 0x00, 0x00, 0x00, 0x00, 0xe0, 0x0f, 0x00, 0x00, 0x00,
   0x00, 0x00, 0x80, 0x3f, 0xf8, 0x03, 0x00, 0x00, 0x00, 0x00, 0x00, 0xe0,
   0x0f, 0x00, 0x00, 0x00, 0x00, 0x00, 0x80, 0x3f, 0xf8, 0x03, 0x00, 0x00,
   0x00, 0x00, 0x00, 0xe0, 0x0f, 0x00, 0x00, 0x00, 0x00, 0x00, 0x80, 0x3f,
   0xfc, 0x03, 0x00, 0x00, 0x00, 0x00, 0x00, 0xe0, 0x0f, 0x00, 0x00, 0x00,
   0x00, 0x00, 0x80, 0x7f, 0xfc, 0x01, 0x00, 0x00, 0x00, 0x00, 0x00, 0xe0,
   0x0f, 0x00, 0x00, 0x00, 0x00, 0x00, 0x00, 0x7f, 0xfc, 0x01, 0x00, 0x00,
   0x00, 0x00, 0x00, 0xe0, 0x0f, 0x00, 0x00, 0x00, 0x00, 0x00, 0x00, 0x7f,
   0xfc, 0x01, 0x00, 0x00, 0x00, 0x00, 0x00, 0xe0, 0x0f, 0x00, 0x00, 0x00,
   0x00, 0x00, 0x00, 0x7f, 0xfc, 0x01, 0x00, 0x00, 0x00, 0x00, 0x00, 0xe0,
   0x0f, 0x00, 0x00, 0x00, 0x00, 0x00, 0x00, 0x7f, 0xfc, 0x01, 0x00, 0x00,
   0x00, 0x00, 0x00, 0xe0, 0x0f, 0x00, 0x00, 0x00, 0x00, 0x00, 0x00, 0x7f,
   0xfe, 0x01, 0x00, 0x00, 0x00, 0x00, 0x00, 0xe0, 0x0f, 0x00, 0x00, 0x00,
   0x00, 0x00, 0x00, 0xff, 0xfe, 0x01, 0x00, 0x00, 0x00, 0x00, 0x00, 0xe0,
   0x0f, 0x00, 0x00, 0x00, 0x00, 0x00, 0x00, 0xff, 0xfe, 0x00, 0x00, 0x00,
   0x00, 0x00, 0x00, 0xe0, 0x0f, 0x00, 0x00, 0x00, 0x00, 0x00, 0x00, 0xfe,
   0xfe, 0x00, 0x00, 0x00, 0x00, 0x00, 0x00, 0xe0, 0x0f, 0x00, 0x00, 0x00,
   0x00, 0x00, 0x00, 0xfe, 0xfe, 0x00, 0x00, 0x00, 0x00, 0x00, 0x00, 0xe0,
   0x0f, 0x00, 0x00, 0x00, 0x00, 0x00, 0x00, 0xfe, 0xfe, 0x00, 0x00, 0x00,
   0x00, 0x00, 0x00, 0xe0, 0x0f, 0x00, 0x00, 0x00, 0x00, 0x00, 0x00, 0xfe,
   0xfe, 0x00, 0x00, 0x00, 0x00, 0x00, 0x00, 0xe0, 0x0f, 0x00, 0x00, 0x00,
   0x00, 0x00, 0x00, 0xfe, 0xfe, 0x00, 0x00, 0x00, 0x00, 0x00, 0x00, 0xe0,
   0x0f, 0x00, 0x00, 0x00, 0x00, 0x00, 0x00, 0xfe, 0xfe, 0x00, 0x00, 0x00,
   0x00, 0x00, 0x00, 0xe0, 0x0f, 0x00, 0x00, 0x00, 0x00, 0x00, 0x00, 0xfe,
   0xfe, 0x00, 0x00, 0x00, 0x00, 0x00, 0x00, 0xf0, 0x1f, 0x00, 0x00, 0x00,
   0x00, 0x00, 0x00, 0xfe, 0xfe, 0x00, 0x00, 0x00, 0x00, 0x00, 0x00, 0xf8,
   0x3f, 0x00, 0x00, 0x00, 0x00, 0x00, 0x00, 0xfe, 0xfe, 0x00, 0x00, 0x00,
   0x00, 0x00, 0x00, 0xfc, 0x7f, 0x00, 0x00, 0x00, 0x00, 0x00, 0x00, 0xfe,
   0xfe, 0x00, 0x00, 0x00, 0x00, 0x00, 0x00, 0xfe, 0xff, 0x00, 0x00, 0x00,
   0x00, 0x00, 0x00, 0xfe, 0xfe, 0x01, 0x00, 0x00, 0x00, 0x00, 0x00, 0xff,
   0xff, 0x01, 0x00, 0x00, 0x00, 0x00, 0x00, 0xff, 0xfe, 0x01, 0x00, 0x00,
   0x00, 0x00, 0x80, 0xff, 0xff, 0x03, 0x00, 0x00, 0x00, 0x00, 0x00, 0xff,
   0xfc, 0x01, 0x00, 0x00, 0x00, 0x00, 0xc0, 0xff, 0xff, 0x07, 0x00, 0x00,
   0x00, 0x00, 0x00, 0x7f, 0xfc, 0x01, 0x00, 0x00, 0x00, 0x00, 0xe0, 0xff,
   0xff, 0x0f, 0x00, 0x00, 0x00, 0x00, 0x00, 0x7f, 0xfc, 0x01, 0x00, 0x00,
   0x00, 0x00, 0xf0, 0xff, 0xff, 0x1f, 0x00, 0x00, 0x00, 0x00, 0x00, 0x7f,
   0xfc, 0x01, 0x00, 0x00, 0x00, 0x00, 0xf8, 0xef, 0xef, 0x3f, 0x00, 0x00,
   0x00, 0x00, 0x00, 0x7f, 0xfc, 0x01, 0x00, 0x00, 0x00, 0x00, 0xfc, 0xe7,
   0xcf, 0x7f, 0x00, 0x00, 0x00, 0x00, 0x00, 0x7f, 0xfc, 0x03, 0x00, 0x00,
   0x00, 0x00, 0xfe, 0xe3, 0x8f, 0xff, 0x00, 0x00, 0x00, 0x00, 0x80, 0x7f,
   0xf8, 0x03, 0x00, 0x00, 0x00, 0x00, 0xff, 0xe1, 0x0f, 0xff, 0x01, 0x00,
   0x00, 0x00, 0x80, 0x3f, 0xf8, 0x03, 0x00, 0x00, 0x00, 0x80, 0xff, 0xe0,
   0x0f, 0xfe, 0x03, 0x00, 0x00, 0x00, 0x80, 0x3f, 0xf8, 0x03, 0x00, 0x00,
   0x00, 0xc0, 0x7f, 0xe0, 0x0f, 0xfc, 0x07, 0x00, 0x00, 0x00, 0x80, 0x3f,
   0xf8, 0x07, 0x00, 0x00, 0x00, 0xe0, 0x3f, 0xe0, 0x0f, 0xf8, 0x0f, 0x00,
   0x00, 0x00, 0xc0, 0x3f, 0xf0, 0x07, 0x00, 0x00, 0x00, 0xf0, 0x1f, 0xe0,
   0x0f, 0xf0, 0x1f, 0x00, 0x00, 0x00, 0xc0, 0x1f, 0xf0, 0x07, 0x00, 0x00,
   0x00, 0xf8, 0x0f, 0xe0, 0x0f, 0xe0, 0x3f, 0x00, 0x00, 0x00, 0xc0, 0x1f,
   0xf0, 0x0f, 0x00, 0x00, 0x00, 0xfc, 0x07, 0xe0, 0x0f, 0xc0, 0x7f, 0x00,
   0x00, 0x00, 0xe0, 0x1f, 0xe0, 0x0f, 0x00, 0x00, 0x00, 0xfe, 0x03, 0xe0,
   0x0f, 0x80, 0xff, 0x00, 0x00, 0x00, 0xe0, 0x0f, 0xe0, 0x1f, 0x00, 0x00,
   0x00, 0xff, 0x01, 0xe0, 0x0f, 0x00, 0xff, 0x01, 0x00, 0x00, 0xf0, 0x0f,
   0xe0, 0x1f, 0x00, 0x00, 0x80, 0xff, 0x00, 0xe0, 0x0f, 0x00, 0xfe, 0x03,
   0x00, 0x00, 0xf0, 0x0f, 0xc0, 0x1f, 0x00, 0x00, 0xc0, 0x7f, 0x00, 0xe0,
   0x0f, 0x00, 0xfc, 0x07, 0x00, 0x00, 0xf0, 0x07, 0xc0, 0x3f, 0x00, 0x00,
   0xe0, 0x3f, 0x00, 0xe0, 0x0f, 0x00, 0xf8, 0x0f, 0x00, 0x00, 0xf8, 0x07,
   0x80, 0x3f, 0x00, 0x00, 0xf0, 0x1f, 0x00, 0xe0, 0x0f, 0x00, 0xf0, 0x1f,
   0x00, 0x00, 0xf8, 0x03, 0x80, 0x7f, 0x00, 0x00, 0xf8, 0x0f, 0x00, 0xe0,
   0x0f, 0x00, 0xe0, 0x3f, 0x00, 0x00, 0xfc, 0x03, 0x00, 0x7f, 0x00, 0x00,
   0xfc, 0x07, 0x00, 0xe0, 0x0f, 0x00, 0xc0, 0x7f, 0x00, 0x00, 0xfc, 0x01,
   0x00, 0xff, 0x00, 0x00, 0xfe, 0x03, 0x00, 0xe0, 0x0f, 0x00, 0x80, 0xff,
   0x00, 0x00, 0xfe, 0x01, 0x00, 0xfe, 0x01, 0x00, 0xff, 0x01, 0x00, 0xe0,
   0x0f, 0x00, 0x00, 0xff, 0x01, 0x00, 0xff, 0x00, 0x00, 0xfe, 0x01, 0x80,
   0xff, 0x00, 0x00, 0xe0, 0x0f, 0x00, 0x00, 0xfe, 0x03, 0x00, 0xff, 0x00,
   0x00, 0xfc, 0x03, 0xc0, 0x7f, 0x00, 0x00, 0xe0, 0x0f, 0x00, 0x00, 0xfc,
   0x07, 0x80, 0x7f, 0x00, 0x00, 0xfc, 0x07, 0xe0, 0x3f, 0x00, 0x00, 0xe0,
   0x0f, 0x00, 0x00, 0xf8, 0x0f, 0xc0, 0x7f, 0x00, 0x00, 0xf8, 0x07, 0xf0,
   0x1f, 0x00, 0x00, 0xe0, 0x0f, 0x00, 0x00, 0xf0, 0x1f, 0xc0, 0x3f, 0x00,
   0x00, 0xf0, 0x0f, 0xf8, 0x0f, 0x00, 0x00, 0xe0, 0x0f, 0x00, 0x00, 0xe0,
   0x3f, 0xe0, 0x1f, 0x00, 0x00, 0xf0, 0x1f, 0xfc, 0x07, 0x00, 0x00, 0xe0,
   0x0f, 0x00, 0x00, 0xc0, 0x7f, 0xf0, 0x1f, 0x00, 0x00, 0xe0, 0x3f, 0xfe,
   0x03, 0x00, 0x00, 0xe0, 0x0f, 0x00, 0x00, 0x80, 0xff, 0xf8, 0x0f, 0x00,
   0x00, 0xc0, 0x7f, 0xff, 0x01, 0x00, 0x00, 0xe0, 0x0f, 0x00, 0x00, 0x00,
   0xff, 0xfd, 0x07, 0x00, 0x00, 0xc0, 0xff, 0xff, 0x00, 0x00, 0x00, 0xe0,
   0x0f, 0x00, 0x00, 0x00, 0xfe, 0xff, 0x07, 0x00, 0x00, 0x80, 0xff, 0x7f,
   0x00, 0x00, 0x00, 0xe0, 0x0f, 0x00, 0x00, 0x00, 0xfc, 0xff, 0x03, 0x00,
   0x00, 0x00, 0xff, 0x3f, 0x00, 0x00, 0x00, 0xe0, 0x0f, 0x00, 0x00, 0x00,
   0xf8, 0xff, 0x01, 0x00, 0x00, 0x00, 0xfe, 0x1f, 0x00, 0x00, 0x00, 0xe0,
   0x0f, 0x00, 0x00, 0x00, 0xf0, 0xff, 0x00, 0x00, 0x00, 0x00, 0xfc, 0x0f,
   0x00, 0x00, 0x00, 0xe0, 0x0f, 0x00, 0x00, 0x00, 0xe0, 0x7f, 0x00, 0x00,
   0x00, 0x00, 0xf8, 0x1f, 0x00, 0x00, 0x00, 0xe0, 0x0f, 0x00, 0x00, 0x00,
   0xf0, 0x3f, 0x00, 0x00, 0x00, 0x00, 0xf0, 0x3f, 0x00, 0x00, 0x00, 0xe0,
   0x0f, 0x00, 0x00, 0x00, 0xf8, 0x1f, 0x00, 0x00, 0x00, 0x00, 0xe0, 0xff,
   0x00, 0x00, 0x00, 0xe0, 0x0f, 0x00, 0x00, 0x00, 0xfe, 0x0f, 0x00, 0x00,
   0x00, 0x00, 0xc0, 0xff, 0x01, 0x00, 0x00, 0xe0, 0x0f, 0x00, 0x00, 0x00,
   0xff, 0x07, 0x00, 0x00, 0x00, 0x00, 0x80, 0xff, 0x07, 0x00, 0x00, 0xe0,
   0x0f, 0x00, 0x00, 0xc0, 0xff, 0x03, 0x00, 0x00, 0x00, 0x00, 0x00, 0xff,
   0x0f, 0x00, 0x00, 0xe0, 0x0f, 0x00, 0x00, 0xe0, 0xff, 0x01, 0x00, 0x00,
   0x00, 0x00, 0x00, 0xfe, 0x3f, 0x00, 0x00, 0xe0, 0x0f, 0x00, 0x00, 0xf8,
   0xff, 0x00, 0x00, 0x00, 0x00, 0x00, 0x00, 0xf8, 0xff, 0x00, 0x00, 0xe0,
   0x0f, 0x00, 0x00, 0xfe, 0x3f, 0x00, 0x00, 0x00, 0x00, 0x00, 0x00, 0xf0,
   0xff, 0x07, 0x00, 0xe0, 0x0f, 0x00, 0xc0, 0xff, 0x1f, 0x00, 0x00, 0x00,
   0x00, 0x00, 0x00, 0xc0, 0xff, 0x1f, 0x00, 0xe0, 0x0f, 0x00, 0xf0, 0xff,
   0x07, 0x00, 0x00, 0x00, 0x00, 0x00, 0x00, 0x80, 0xff, 0xff, 0x00, 0xe0,
   0x0f, 0x00, 0xfe, 0xff, 0x03, 0x00, 0x00, 0x00, 0x00, 0x00, 0x00, 0x00,
   0xfe, 0xff, 0x0f, 0xe0, 0x0f, 0xe0, 0xff, 0xff, 0x00, 0x00, 0x00, 0x00,
   0x00, 0x00, 0x00, 0x00, 0xf8, 0xff, 0xff, 0xe7, 0xcf, 0xff, 0xff, 0x3f,
   0x00, 0x00, 0x00, 0x00, 0x00, 0x00, 0x00, 0x00, 0xe0, 0xff, 0xff, 0xff,
   0xff, 0xff, 0xff, 0x0f, 0x00, 0x00, 0x00, 0x00, 0x00, 0x00, 0x00, 0x00,
   0x80, 0xff, 0xff, 0xff, 0xff, 0xff, 0xff, 0x03, 0x00, 0x00, 0x00, 0x00,
   0x00, 0x00, 0x00, 0x00, 0x00, 0xfe, 0xff, 0xff, 0xff, 0xff, 0xff, 0x00,
   0x00, 0x00, 0x00, 0x00, 0x00, 0x00, 0x00, 0x00, 0x00, 0xf0, 0xff, 0xff,
   0xff, 0xff, 0x1f, 0x00, 0x00, 0x00, 0x00, 0x00, 0x00, 0x00, 0x00, 0x00,
   0x00, 0x80, 0xff, 0xff, 0xff, 0xff, 0x03, 0x00, 0x00, 0x00, 0x00, 0x00,
   0x00, 0x00, 0x00, 0x00, 0x00, 0x00, 0xf8, 0xff, 0xff, 0x3f, 0x00, 0x00,
   0x00, 0x00, 0x00, 0x00, 0x00, 0x00, 0x00, 0x00, 0x00, 0x00, 0x00, 0xfe,
   0xff, 0x00, 0x00, 0x00, 0x00, 0x00, 0x00, 0x00};
