#define btnblack_width 102
#define btnblack_height 46
static unsigned char btnblack_bits[] = {
   0x00, 0x00, 0x00, 0x00, 0x00, 0x00, 0x00, 0x00, 0x00, 0x00, 0x00, 0x00,
   0x00, 0x00, 0x00, 0x00, 0x00, 0x00, 0x00, 0x00, 0x00, 0x00, 0x00, 0x00,
   0x00, 0x20, 0x88, 0x88, 0x88, 0x88, 0x88, 0x88, 0x88, 0x88, 0x88, 0x88,
   0x88, 0x88, 0x38, 0x20, 0x22, 0x22, 0x22, 0x22, 0x22, 0x22, 0x22, 0x22,
   0x22, 0x22, 0x22, 0x32, 0x88, 0x88, 0x88, 0x88, 0x88, 0x88, 0x88, 0x88,
   0x88, 0x88, 0x88, 0x88, 0x38, 0x20, 0x22, 0x22, 0x22, 0x22, 0x22, 0x22,
   0x22, 0x22, 0x22, 0x22, 0x22, 0x32, 0x88, 0x88, 0x88, 0x88, 0x88, 0x88,
   0x88, 0x88, 0x88, 0x88, 0x88, 0x88, 0x38, 0x20, 0x22, 0x22, 0x22, 0x22,
   0x22, 0x22, 0x22, 0x22, 0x22, 0x22, 0x22, 0x32, 0x88, 0x88, 0x88, 0x88,
   0x88, 0x88, 0x88, 0x88, 0x88, 0x88, 0x88, 0x88, 0x38, 0x20, 0x22, 0x22,
   0x22, 0x22, 0x22, 0x22, 0x22, 0x22, 0x22, 0x22, 0x22, 0x32, 0x88, 0x88,
   0x88, 0x88, 0x88, 0x88, 0x88, 0x88, 0x88, 0x88, 0x88, 0x88, 0x38, 0x20,
   0x22, 0x22, 0x22, 0x22, 0x22, 0x22, 0x22, 0x22, 0x22, 0x22, 0x22, 0x32,
   0x88, 0x88, 0x88, 0x88, 0x88, 0x88, 0x88, 0x88, 0x88, 0x88, 0x88, 0x88,
   0x38, 0x20, 0x22, 0x22, 0x22, 0x22, 0x22, 0x22, 0x22, 0x22, 0x22, 0x22,
   0x22, 0x32, 0x88, 0x88, 0x88, 0x88, 0x88, 0x88, 0x88, 0x88, 0x88, 0x88,
   0x88, 0x88, 0x38, 0x20, 0x22, 0x22, 0x22, 0x22, 0x22, 0x22, 0x22, 0x22,
   0x22, 0x22, 0x22, 0x32, 0x88, 0x88, 0x88, 0x88, 0x88, 0x88, 0x88, 0x88,
   0x88, 0x88, 0x88, 0x88, 0x38, 0x20, 0x22, 0x22, 0x22, 0x22, 0x22, 0x22,
   0x22, 0x22, 0x22, 0x22, 0x22, 0x32, 0x88, 0x88, 0x88, 0x88, 0x88, 0x88,
   0x88, 0x88, 0x88, 0x88, 0x88, 0x88, 0x38, 0x20, 0x22, 0x22, 0x22, 0x22,
   0x22, 0x22, 0x22, 0x22, 0x22, 0x22, 0x22, 0x32, 0x88, 0x88, 0x88, 0x88,
   0x88, 0x88, 0x88, 0x88, 0x88, 0x88, 0x88, 0x88, 0x38, 0x20, 0x22, 0x22,
   0x22, 0x22, 0x22, 0x22, 0x22, 0x22, 0x22, 0x22, 0x22, 0x32, 0x88, 0x88,
   0x88, 0x88, 0x88, 0x88, 0x88, 0x88, 0x88, 0x88, 0x88, 0x88, 0x38, 0x20,
   0x22, 0x22, 0x22, 0x22, 0x22, 0x22, 0x22, 0x22, 0x22, 0x22, 0x22, 0x32,
   0x88, 0x88, 0x88, 0x88, 0x88, 0x88, 0x88, 0x88, 0x88, 0x88, 0x88, 0x88,
   0x38, 0x20, 0x22, 0x22, 0x22, 0x22, 0x22, 0x22, 0x22, 0x22, 0x22, 0x22,
   0x22, 0x32, 0x88, 0x88, 0x88, 0x88, 0x88, 0x88, 0x88, 0x88, 0x88, 0x88,
   0x88, 0x88, 0x38, 0x20, 0x22, 0x22, 0x22, 0x22, 0x22, 0x22, 0x22, 0x22,
   0x22, 0x22, 0x22, 0x32, 0x88, 0x88, 0x88, 0x88, 0x88, 0x88, 0x88, 0x88,
   0x88, 0x88, 0x88, 0x88, 0x38, 0x20, 0x22, 0x22, 0x22, 0x22, 0x22, 0x22,
   0x22, 0x22, 0x22, 0x22, 0x22, 0x32, 0x88, 0x88, 0x88, 0x88, 0x88, 0x88,
   0x88, 0x88, 0x88, 0x88, 0x88, 0x88, 0x38, 0x20, 0x22, 0x22, 0x22, 0x22,
   0x22, 0x22, 0x22, 0x22, 0x22, 0x22, 0x22, 0x32, 0x88, 0x88, 0x88, 0x88,
   0x88, 0x88, 0x88, 0x88, 0x88, 0x88, 0x88, 0x88, 0x38, 0x20, 0x22, 0x22,
   0x22, 0x22, 0x22, 0x22, 0x22, 0x22, 0x22, 0x22, 0x22, 0x32, 0x88, 0x88,
   0x88, 0x88, 0x88, 0x88, 0x88, 0x88, 0x88, 0x88, 0x88, 0x88, 0x38, 0x20,
   0x22, 0x22, 0x22, 0x22, 0x22, 0x22, 0x22, 0x22, 0x22, 0x22, 0x22, 0x32,
   0x88, 0x88, 0x88, 0x88, 0x88, 0x88, 0x88, 0x88, 0x88, 0x88, 0x88, 0x88,
   0x38, 0x20, 0x22, 0x22, 0x22, 0x22, 0x22, 0x22, 0x22, 0x22, 0x22, 0x22,
   0x22, 0x32, 0x88, 0x88, 0x88, 0x88, 0x88, 0x88, 0x88, 0x88, 0x88, 0x88,
   0x88, 0x88, 0x38, 0x20, 0x22, 0x22, 0x22, 0x22, 0x22, 0x22, 0x22, 0x22,
   0x22, 0x22, 0x22, 0x32, 0x88, 0x88, 0x88, 0x88, 0x88, 0x88, 0x88, 0x88,
   0x88, 0x88, 0x88, 0x88, 0x38, 0x20, 0x22, 0x22, 0x22, 0x22, 0x22, 0x22,
   0x22, 0x22, 0x22, 0x22, 0x22, 0x32, 0x88, 0x88, 0x88, 0x88, 0x88, 0x88,
   0x88, 0x88, 0x88, 0x88, 0x88, 0x88, 0x38, 0x20, 0x22, 0x22, 0x22, 0x22,
   0x22, 0x22, 0x22, 0x22, 0x22, 0x22, 0x22, 0x32, 0xfc, 0xff, 0xff, 0xff,
   0xff, 0xff, 0xff, 0xff, 0xff, 0xff, 0xff, 0xff, 0x3f, 0xfe, 0xff, 0xff,
   0xff, 0xff, 0xff, 0xff, 0xff, 0xff, 0xff, 0xff, 0xff, 0x3f};
