#define btnwhite_width 102
#define btnwhite_height 46
static unsigned char btnwhite_bits[] = {
   0xff, 0xff, 0xff, 0xff, 0xff, 0xff, 0xff, 0xff, 0xff, 0xff, 0xff, 0xff,
   0x3f, 0xff, 0xff, 0xff, 0xff, 0xff, 0xff, 0xff, 0xff, 0xff, 0xff, 0xff,
   0xff, 0x1f, 0x03, 0x00, 0x00, 0x00, 0x00, 0x00, 0x00, 0x00, 0x00, 0x00,
   0x00, 0x70, 0x00, 0x03, 0x00, 0x00, 0x00, 0x00, 0x00, 0x00, 0x00, 0x00,
   0x00, 0x00, 0x78, 0x00, 0x03, 0x00, 0x00, 0x00, 0x00, 0x00, 0x00, 0x00,
   0x00, 0x00, 0x0c, 0x38, 0x00, 0x03, 0x00, 0x00, 0x00, 0x00, 0x00, 0x00,
   0x00, 0x00, 0x00, 0x1e, 0x3c, 0x00, 0x03, 0x00, 0x00, 0x00, 0x00, 0x00,
   0x00, 0x00, 0x00, 0x00, 0x1e, 0x1e, 0x00, 0x03, 0x00, 0x00, 0x00, 0x00,
   0x00, 0x00, 0x00, 0x00, 0x3f, 0x3e, 0x0e, 0x00, 0x03, 0x00, 0x00, 0x00,
   0x00, 0x00, 0x00, 0x00, 0xc0, 0xff, 0x3c, 0x0f, 0x00, 0x03, 0x00, 0x00,
   0x00, 0x00, 0x00, 0x00, 0x00, 0xe0, 0xff, 0x3c, 0x07, 0x00, 0x03, 0x00,
   0x00, 0x00, 0x00, 0x00, 0x00, 0x00, 0xf8, 0xf8, 0xbc, 0x03, 0x00, 0x03,
   0x00, 0x00, 0x00, 0x00, 0x00, 0x00, 0x00, 0x78, 0x70, 0xfc, 0x07, 0x00,
   0x03, 0x00, 0x00, 0x00, 0x00, 0x00, 0x80, 0x0f, 0x7c, 0x00, 0xf8, 0x0f,
   0x00, 0x03, 0x00, 0x00, 0x00, 0x00, 0x00, 0xf0, 0x3f, 0xfc, 0x00, 0xf8,
   0x3f, 0x00, 0x03, 0x00, 0x00, 0x00, 0x00, 0x00, 0xfc, 0x7f, 0xfc, 0x1f,
   0xf8, 0xff, 0x00, 0x03, 0x00, 0x00, 0x00, 0x00, 0x30, 0x7e, 0xf8, 0xf8,
   0xff, 0x70, 0xfe, 0x03, 0x03, 0x00, 0x00, 0x00, 0x00, 0x78, 0x3c, 0xf0,
   0xf0, 0xff, 0xf1, 0xf8, 0x07, 0x03, 0x00, 0x00, 0x00, 0x00, 0x78, 0x3c,
   0xf0, 0x00, 0xfe, 0xf3, 0xe0, 0x07, 0x03, 0x00, 0x00, 0x00, 0x0c, 0xf8,
   0x3c, 0x78, 0x00, 0xc0, 0xf3, 0x80, 0x03, 0x03, 0x00, 0x00, 0x00, 0x1e,
   0xf0, 0x3c, 0x7e, 0x00, 0xc0, 0xe3, 0x00, 0x00, 0x03, 0x00, 0x00, 0x00,
   0x1e, 0xf0, 0xf8, 0x3f, 0xc0, 0xc1, 0xe3, 0x01, 0x00, 0x03, 0x00, 0x30,
   0x00, 0x1e, 0xf0, 0xf9, 0xff, 0xf0, 0xe3, 0xe3, 0x01, 0x00, 0x03, 0x00,
   0x78, 0x00, 0x3e, 0xe0, 0xf9, 0xf9, 0xe1, 0xf3, 0xc1, 0x00, 0x00, 0x03,
   0x00, 0x78, 0x00, 0x3e, 0xe0, 0xf3, 0xe0, 0xe3, 0xff, 0x00, 0x00, 0x00,
   0x03, 0x18, 0xf8, 0x00, 0x3c, 0xe0, 0xf3, 0xc0, 0xc3, 0x7f, 0x00, 0x00,
   0x00, 0x03, 0x7e, 0xf0, 0x00, 0x3c, 0xc0, 0xf3, 0xc0, 0x07, 0x0f, 0x00,
   0x00, 0x00, 0xc3, 0xff, 0xf0, 0x00, 0x7c, 0xc0, 0xf3, 0x80, 0x0f, 0x00,
   0x00, 0x00, 0x00, 0xf3, 0xf7, 0xf1, 0x01, 0x78, 0xc0, 0xe3, 0x81, 0x03,
   0x00, 0x00, 0x00, 0x00, 0xfb, 0xe0, 0xe1, 0x01, 0xf8, 0xc0, 0xe3, 0x01,
   0x00, 0x00, 0x00, 0x00, 0x00, 0xf3, 0xc0, 0xe1, 0x01, 0xf8, 0xc0, 0xe3,
   0x03, 0x00, 0x00, 0x00, 0x00, 0x00, 0xf3, 0xc1, 0xe1, 0x01, 0xf0, 0xe1,
   0xc3, 0x00, 0x00, 0x00, 0x00, 0x00, 0x00, 0xe3, 0xe1, 0xe3, 0x03, 0xf0,
   0xff, 0x01, 0x00, 0x00, 0x00, 0x00, 0x00, 0x00, 0xe3, 0xf9, 0xc7, 0x03,
   0xe0, 0xff, 0x00, 0x00, 0x00, 0x00, 0x00, 0x00, 0x00, 0xe3, 0xff, 0xcf,
   0x03, 0x83, 0x3f, 0x00, 0x00, 0x00, 0x00, 0x00, 0x00, 0x00, 0xc3, 0xbf,
   0x8f, 0xc7, 0x07, 0x07, 0x00, 0x00, 0x00, 0x00, 0x00, 0x00, 0x00, 0xc3,
   0x0f, 0x9f, 0xff, 0x07, 0x00, 0x00, 0x00, 0x00, 0x00, 0x00, 0x00, 0x00,
   0xc3, 0x03, 0x9e, 0xff, 0x03, 0x00, 0x00, 0x00, 0x00, 0x00, 0x00, 0x00,
   0x00, 0x83, 0x07, 0x1e, 0x7f, 0x00, 0x00, 0x00, 0x00, 0x00, 0x00, 0x00,
   0x00, 0x00, 0x83, 0x07, 0x1f, 0x1f, 0x00, 0x00, 0x00, 0x00, 0x00, 0x00,
   0x00, 0x00, 0x00, 0x83, 0x87, 0x0f, 0x03, 0x00, 0x00, 0x00, 0x00, 0x00,
   0x00, 0x00, 0x00, 0x00, 0x03, 0xef, 0x07, 0x00, 0x00, 0x00, 0x00, 0x00,
   0x00, 0x00, 0x00, 0x00, 0x00, 0x03, 0xff, 0x03, 0x00, 0x00, 0x00, 0x00,
   0x00, 0x00, 0x00, 0x00, 0x00, 0x00, 0x03, 0xfe, 0x00, 0x00, 0x00, 0x00,
   0x00, 0x00, 0x00, 0x00, 0x00, 0x00, 0x00, 0x03, 0x1e, 0x00, 0x00, 0x00,
   0x00, 0x00, 0x00, 0x00, 0x00, 0x00, 0x00, 0x00, 0x03, 0x00, 0x00, 0x00,
   0x00, 0x00, 0x00, 0x00, 0x00, 0x00, 0x00, 0x00, 0x00, 0x01, 0x00, 0x00,
   0x00, 0x00, 0x00, 0x00, 0x00, 0x00, 0x00, 0x00, 0x00, 0x00};
